<svg xmlns="http://www.w3.org/2000/svg" viewBox="0 0 118 120"><path fill="#41D1FF" d="M113.5 12.8L63.3 112.3c-1.4 2.8-5.3 2.8-6.7 0L4.5 12.8C2.7 9.3 5.3 5 9.2 5h99.6c3.9 0 6.5 4.3 4.7 7.8z"/><path fill="#41D1FF" d="M4.5 12.8L59.9 112.3c1.4 2.8 5.3 2.8 6.7 0L113.5 12.8C115.3 9.3 112.7 5 108.8 5H9.2C5.3 5 2.7 9.3 4.5 12.8z" opacity=".7"/><path fill="#fff" d="M64.8 52H53.2l-2.2 10.6c1.3-.2 2.5-.4 4-.4 4.6 0 7.4 2.3 7.4 6.5 0 4.2-3.3 7.2-8.2 7.2-2.5 0-4.6-.5-5.8-1.2l.8-3.9c1.1.6 2.9 1.2 4.9 1.2 2.5 0 4.3-1.3 4.3-3.4 0-2-1.5-3.2-4.6-3.2-1.3 0-2.3.1-3.1.3l3.7-17.9h12.4v3.6z"/></svg>